<svg xmlns="http://www.w3.org/2000/svg" version="1.1" xmlns:xlink="http://www.w3.org/1999/xlink" xmlns:svgjs="http://svgjs.dev/svgjs" viewBox="0 0 800 800"><defs><filter id="uuunion-blur" x="-100%" y="-100%" width="400%" height="400%" color-interpolation-filters="sRGB">
        <feGaussianBlur in="SourceGraphic" stdDeviation="7.5 0" result="blur"></feGaussianBlur>
        <feDropShadow stdDeviation="12.307692307692308" in="blur" dx="10" dy="10" flood-color="hsl(316, 73%, 52%)" flood-opacity="0.25" x="0%" y="0%" width="100%" height="100%"></feDropShadow>
      </filter><filter id="uuunion-blur2" x="-100%" y="-100%" width="400%" height="400%" color-interpolation-filters="sRGB">
        <feGaussianBlur in="SourceGraphic" stdDeviation="7.5 0" result="blur"></feGaussianBlur>
        <feDropShadow stdDeviation="12.307692307692308" in="blur" dx="-10" dy="-10" flood-color="hsl(316, 73%, 52%)" flood-opacity="0.25" x="0%" y="0%" width="100%" height="100%"></feDropShadow>
      </filter><linearGradient gradientTransform="rotate(0, 0.5, 0.5)" x1="50%" y1="0%" x2="50%" y2="100%" id="uuunion-grad"><stop stop-color="hsl(37, 99%, 67%)" offset="10%"></stop><stop stop-color="hsl(316, 73%, 52%)" offset="90%"></stop></linearGradient><linearGradient gradientTransform="rotate(135, 0.5, 0.5)" x1="50%" y1="0%" x2="50%" y2="100%" id="uuunion-grad2"><stop stop-color="hsl(37, 99%, 67%)" offset="25%"></stop><stop stop-color="hsl(316, 73%, 52%)" offset="100%"></stop></linearGradient><linearGradient gradientTransform="rotate(333, 0.5, 0.5)" x1="50%" y1="0%" x2="50%" y2="100%" id="uuunion-grad3"><stop stop-color="hsl(37, 99%, 67%)" offset="0%"></stop><stop stop-color="hsl(316, 73%, 52%)" offset="75%"></stop></linearGradient></defs><path d="M-78.9 -88.44Q-64.29 -86 -49.68 -81.87 -35.08 -77.22 -20.47 -73.35 -5.86 -71.33 8.73 -71.75 23.34 -74.48 37.95 -78.75 52.56 -83.37 67.16 -87.05 81.77 -88.75 96.38 -87.99 110.98 -85 125.59 -80.61 140.2 -76.04 154.8 -72.58 169.41 -71.2 184.02 -72.28 198.63 -75.53 213.23 -80.02 227.84 -84.51 242.45 -87.73 257.05 -88.79 271.66 -87.38 286.27 -83.9 300.87 -79.33 315.48 -74.94 330.09 -71.97 344.7 -71.25 359.3 -72.98 373.91 -76.67 388.52 -81.3 403.12 -85.56 417.73 -88.26 432.34 -88.65 446.94 -86.61 461.55 -82.72 476.16 -78.06 490.77 -73.95 505.37 -71.53 519.98 -71.49 534.59 -73.82 549.19 -77.89 563.8 -82.54 578.41 -86.49 593.01 -88.61 607.62 -88.32 622.23 -85.7 636.84 -81.48 651.44 -76.84 666.05 -73.09 680.66 -71.27 695.26 -71.9 709.87 -74.8 724.48 -79.15 739.08 -83.74 753.69 -87.28 768.3 -88.78 782.91 -87.82 797.51 -84.67 812.12 -80.2 826.73 -75.68 841.33 -72.37 855.94 -71.2 857.31 -55.97 860.48 -40.75 865.21 -25.52 871.11 -10.3 877.72 4.92 884.52 20.14 890.95 35.37 896.51 50.59 900.75 65.82 903.35 81.04 904.08 96.27 902.9 111.49 899.9 126.72 895.31 141.94 889.51 157.17 882.95 172.39 876.15 187.62 869.66 202.84 863.99 218.07 859.59 233.29 856.82 248.52 855.9 263.74 856.88 278.97 859.71 294.19 864.16 309.42 869.86 324.64 876.37 339.87 883.16 355.09 889.71 370.32 895.48 385.54 900.02 400.77 902.97 415.99 904.09 431.22 903.29 446.44 900.64 461.67 896.34 476.89 890.75 492.12 884.3 507.34 877.5 522.57 870.91 537.79 865.04 553.02 860.36 568.24 857.24 583.47 855.93 598.69 856.53 613.92 859.01 629.14 863.15 644.37 868.63 659.59 875.02 674.82 881.8 690.04 888.44 705.27 894.41 720.49 899.23 735.72 902.52 750.94 904.02 766.17 903.6 781.39 901.31 796.62 897.32 811.84 891.95 827.07 885.64 842.29 878.87 857.52 872.19 872.74 866.13 887.97 861.18 903.19 846.49 900.09 831.79 891.36 817.1 879.45 802.41 867.68 787.72 859.37 773.02 856.84 758.33 860.79 743.64 870.13 728.95 882.23 714.25 893.7 699.56 901.34 684.87 902.99 670.18 898.2 655.48 888.31 640.79 876.09 626.1 864.96 611.41 858.05 596.71 857.28 582.02 862.88 567.33 873.27 552.64 885.55 537.94 896.27 523.25 902.43 508.56 902.3 493.86 895.93 479.17 885.09 464.48 872.82 449.79 862.56 435.09 857.19 420.4 858.21 405.71 865.33 391.02 876.56 376.32 888.75 361.63 898.49 346.94 903.05 332.25 901.15 317.55 893.32 302.86 881.75 288.17 869.7 273.48 860.53 258.78 856.81 244.09 859.59 229.4 868.09 214.71 879.92 200.01 891.77 185.32 900.33 170.63 903.18 155.94 899.54 141.24 890.42 126.55 878.38 111.86 866.8 97.16 858.91 82.47 856.92 67.78 861.41 53.09 871.1 38.39 883.28 23.7 894.55 9.01 901.73 -5.67 902.83 -20.37 897.52 -35.06 887.31 -49.75 875.05 -64.44 864.17 -79.14 857.73 -79.36 842.94 -79.64 828.16 -79.94 813.38 -80.25 798.59 -80.54 783.81 -80.79 769.02 -80.97 754.24 -81.07 739.45 -81.09 724.67 -81.02 709.89 -80.87 695.1 -80.65 680.32 -80.38 665.53 -80.08 650.75 -79.77 635.97 -79.48 621.18 -79.23 606.4 -79.04 591.61 -78.92 576.83 -78.9 562.05 -78.96 547.26 -79.1 532.48 -79.31 517.69 -79.58 502.91 -79.88 488.13 -80.19 473.34 -80.49 458.56 -80.74 443.77 -80.94 428.99 -81.06 414.21 -81.09 399.42 -81.04 384.64 -80.91 369.85 -80.7 355.07 -80.44 340.29 -80.14 325.5 -79.83 310.72 -79.53 295.93 -79.27 281.15 -79.07 266.37 -78.94 251.58 -78.9 236.8 -78.94 222.01 -79.06 207.23 -79.26 192.45 -79.52 177.66 -79.82 162.88 -80.13 148.09 -80.43 133.31 -80.69 118.53 -80.9 103.74 -81.04 88.96 -81.09 74.17 -81.06 59.39 -80.94 44.6 -80.75 29.82 -80.49 15.04 -80.2 0.25 -79.89 -14.52 -79.59 -29.31 -79.32 -44.09 -79.1 -58.87 -78.96 -73.66 -78.9 -88.44" fill="url(#uuunion-grad)"></path><path d="M-78.9 -88.44Q-78.96 -73.66 -79.1 -58.87 -79.32 -44.09 -79.59 -29.31 -79.89 -14.52 -80.2 0.25 -80.49 15.04 -80.75 29.82 -80.94 44.6 -81.06 59.39 -81.09 74.17 -81.04 88.96 -80.9 103.74 -80.69 118.53 -80.43 133.31 -80.13 148.09 -79.82 162.88 -79.52 177.66 -79.26 192.45 -79.06 207.23 -78.94 222.01 -78.9 236.8 -78.94 251.58 -79.07 266.37 -79.27 281.15 -79.53 295.93 -79.83 310.72 -80.14 325.5 -80.44 340.29 -80.7 355.07 -80.91 369.85 -81.04 384.64 -70.79 387.18 -60.54 391.33 -50.29 396.58 -40.04 402.26 -29.79 407.66 -19.54 412.08 -0.33 415.72 2.99 415.95 15.71 407.58 28.38 396.54 41 383.81 53.54 370.65 66.01 358.42 78.39 348.27 90.69 340.92 102.89 336.55 115.01 334.77 127.04 334.68 138.99 335.05 150.86 334.61 162.67 332.22 174.42 327.18 186.13 319.27 197.82 308.86 209.49 296.78 221.17 284.19 232.87 272.33 244.61 262.26 256.41 254.71 268.28 249.9 280.25 247.52 292.33 246.77 304.53 246.57 316.87 245.74 329.35 243.24 341.99 238.37 354.79 230.88 367.76 221.06 380.89 209.63 394.18 197.62 407.63 186.15 421.23 176.23 434.96 168.54 448.81 163.34 462.77 160.38 476.82 158.99 490.93 158.21 505.07 156.96 519.23 154.29 533.38 149.52 547.48 142.4 561.52 133.14 575.46 122.34 589.27 110.92 602.93 99.89 616.42 90.16 629.72 82.4 642.79 76.85 655.63 73.36 668.22 71.34 680.55 69.97 692.61 68.27 704.41 65.38 715.93 60.66 727.2 53.86 738.2 45.1 748.97 34.92 759.52 24.1 769.87 13.53 780.04 4.05 790.08 -3.73 800 -9.56 792.86 -26.81 786.5 -44.05 781.6 -61.3 778.68 -78.55 778.07 -95.8 779.82 -113.05 783.76 -130.3 789.45 -147.55 774.73 -147.68 760.01 -145.68 745.29 -142.11 730.57 -137.95 715.85 -134.36 701.13 -132.33 686.42 -132.42 671.7 -134.61 656.98 -138.28 642.26 -142.44 627.54 -145.91 612.82 -147.75 598.1 -147.44 583.39 -145.07 568.67 -141.3 553.95 -137.16 539.23 -133.81 524.51 -132.17 509.79 -132.7 495.07 -135.24 480.35 -139.1 465.64 -143.21 450.92 -146.43 436.2 -147.87 421.48 -147.12 406.76 -144.41 392.04 -140.47 377.32 -136.4 362.61 -133.33 347.89 -132.1 333.17 -133.06 318.45 -135.93 303.73 -139.93 289.01 -143.95 274.29 -146.87 259.58 -147.89 244.86 -146.73 230.14 -143.7 215.42 -139.64 200.7 -135.68 185.98 -132.92 171.26 -132.11 156.55 -133.49 141.83 -136.67 127.11 -140.76 112.39 -144.65 97.67 -147.24 82.95 -147.83 68.23 -146.25 53.51 -142.94 38.8 -138.81 24.08 -135.01 9.36 -132.59 -5.35 -132.22 -20.07 -134 -34.79 -137.44 -49.51 -141.58 -64.22 -145.29 -78.94 -147.53 -93.66 -147.69 -108.38 -145.71 -123.1 -142.16 -132.42 -126.32 -115.18 -114.24 -106.04 -108.93 -96.95 -102.97 -87.91 -96.17 -78.9 -88.44" fill="url(#uuunion-grad2)" filter="url(#uuunion-blur)"></path><path d="M820.97 384.7Q831.22 387.3 841.47 391.5 851.72 396.78 861.97 402.46 872.22 407.83 882.47 412.22 892.72 415.05 902.97 415.99 904.09 431.22 903.29 446.44 900.64 461.67 896.34 476.89 890.75 492.12 884.3 507.34 877.5 522.57 870.91 537.79 865.04 553.02 860.36 568.24 857.24 583.47 855.93 598.69 856.53 613.92 859.01 629.14 863.15 644.37 868.63 659.59 875.02 674.82 881.8 690.04 888.44 705.27 894.41 720.49 899.23 735.72 902.52 750.94 904.02 766.17 903.6 781.39 901.31 796.62 897.32 811.84 891.95 827.07 885.64 842.29 878.87 857.52 872.19 872.74 866.13 887.97 861.18 903.19 847.7 900.58 834.21 893.1 820.73 882.51 807.25 871.32 793.76 862.19 780.28 857.28 766.8 857.75 753.31 863.48 739.83 873.13 726.34 884.41 712.86 894.64 699.38 901.4 685.89 903.09 672.41 899.31 658.93 890.96 645.44 880.01 631.96 869.05 618.48 860.69 604.99 856.9 591.51 858.58 578.03 865.33 564.54 875.56 551.06 886.83 537.58 896.49 524.09 902.24 510.61 902.72 497.12 897.81 483.64 888.69 470.16 877.51 456.67 866.91 443.19 859.42 429.71 856.8 416.22 859.67 402.74 867.36 389.26 878.04 375.77 889.18 362.29 898.15 348.81 902.82 335.32 902.08 321.84 896.11 308.36 886.32 294.87 875.04 281.39 864.92 267.91 858.38 254.42 856.96 240.94 860.99 227.45 869.53 213.97 880.54 200.49 891.43 187 899.6 173.52 903.13 160.04 901.18 146.55 894.22 133.07 883.88 119.59 872.62 106.1 863.11 92.62 857.6 79.14 857.39 65.65 862.54 52.17 871.82 38.69 883.04 25.2 893.54 5.04 896.93 -1.48 882.88 -1.31 872.73 -1.13 862.58 -0.95 852.43 -0.77 842.28 -0.26 827.06 0.57 822 13.38 813.5 26.24 801.18 39.13 786.23 52.04 770.38 64.96 755.52 77.87 743.31 90.76 734.9 103.62 730.68 116.43 730.2 129.17 732.32 141.84 735.38 154.42 737.54 166.91 737.18 179.3 733.17 191.57 725.11 203.73 713.38 215.78 699.08 227.72 683.82 239.55 669.36 251.27 657.3 262.9 648.74 274.45 644.11 285.93 643.05 297.35 644.51 308.74 646.98 320.11 648.73 331.48 648.21 342.87 644.33 354.31 636.65 365.81 625.49 377.4 611.85 389.1 597.18 400.92 583.15 412.89 571.26 425.02 562.59 437.32 557.59 449.81 555.97 462.5 556.79 475.39 558.66 488.48 559.97 501.78 559.26 515.28 555.47 528.98 548.14 542.85 537.53 556.9 524.52 571.09 510.46 585.41 496.87 599.84 485.19 614.35 476.46 628.91 471.12 643.49 468.96 658.05 469.16 672.58 470.42 687.03 471.28 701.37 470.34 715.58 466.6 729.61 459.59 743.44 449.5 757.05 437.11 770.4 423.65 783.49 410.53 796.29 399.1 814.87 387.51 820.97 384.7" fill="url(#uuunion-grad3)" filter="url(#uuunion-blur2)"></path></svg>