<svg width="426" height="120" viewBox="0 0 426 120" fill="none" xmlns="http://www.w3.org/2000/svg">
<rect width="102.882" height="58.042" rx="8" transform="matrix(0.586102 -0.810238 0.782572 0.62256 320.279 83.359)" fill="#7B2CBF"/>
<rect width="104.625" height="57.0155" rx="8" transform="matrix(0.0304169 -0.999537 0.99944 0.0334479 309 106.927)" fill="#FF9100"/>
<path d="M1.875 25.3125C5.625 25.625 8.90625 25.8125 11.7188 25.875C14.5938 25.9375 17.0312 25.9688 19.0312 25.9688C21.3438 25.9688 23.3438 25.9063 25.0312 25.7812C26.7812 25.5938 29.0625 25.3438 31.875 25.0312C34.25 24.7187 37.3125 24.3125 41.0625 23.8125C44.8125 23.25 49.375 22.5313 54.75 21.6562C54.0625 22.7188 53.4688 23.8438 52.9688 25.0312C52.5312 26.1562 52.1562 27.1875 51.8438 28.125C51.5312 29.25 51.25 30.3437 51 31.4062C50.8125 32.5938 50.5938 34.0625 50.3438 35.8125C50.0938 37.3125 49.7812 39.2188 49.4062 41.5312C49.0938 43.7812 48.6875 46.4688 48.1875 49.5938C46.3125 44.7188 44.4062 40.9688 42.4688 38.3438C40.5938 35.7188 38.8438 33.7812 37.2188 32.5312C35.3438 31.0937 33.5625 30.2812 31.875 30.0938C29.4375 30.0938 27.4375 30.5625 25.875 31.5C24.3125 32.4375 23.0312 33.6562 22.0312 35.1562C21.0938 36.5938 20.375 38.1875 19.875 39.9375C19.375 41.625 19.0312 43.2812 18.8438 44.9062C18.6562 46.4688 18.5312 47.875 18.4688 49.125C18.4062 50.3125 18.3438 51.125 18.2812 51.5625C20.4688 51.4375 22.3125 51.2812 23.8125 51.0938C25.3125 50.9062 26.5 50.7188 27.375 50.5312C28.4375 50.2812 29.2812 50.0312 29.9062 49.7812C30.8438 49.2812 31.7812 48.6875 32.7188 48C33.5312 47.375 34.375 46.625 35.25 45.75C36.1875 44.875 37 43.8125 37.6875 42.5625C37.3125 44.8125 36.9688 46.6875 36.6562 48.1875C36.4062 49.6875 36.1875 50.875 36 51.75C35.75 52.8125 35.5938 53.625 35.5312 54.1875C35.4062 54.75 35.25 55.5312 35.0625 56.5312C34.875 57.4062 34.6562 58.5312 34.4062 59.9062C34.1562 61.2812 33.875 63 33.5625 65.0625C32.8125 63.75 32.0312 62.6875 31.2188 61.875C30.4062 61 29.6562 60.3125 28.9688 59.8125C28.1562 59.25 27.375 58.8125 26.625 58.5C25.8125 58.25 24.9375 58 24 57.75C23.1875 57.5625 22.2188 57.375 21.0938 57.1875C20.0312 56.9375 18.875 56.7188 17.625 56.5312C17.75 59.9062 17.9375 62.8125 18.1875 65.25C18.4375 67.625 18.6562 69.625 18.8438 71.25C19.0938 73.125 19.3438 74.6875 19.5938 75.9375C19.9062 77.1875 20.4062 78.5312 21.0938 79.9688C21.6562 81.2188 22.4375 82.6562 23.4375 84.2812C24.5 85.8438 25.8438 87.5312 27.4688 89.3438C26.2188 89.0312 24.9062 88.8125 23.5312 88.6875C22.1562 88.5625 20.9375 88.4688 19.875 88.4062C18.5625 88.3438 17.3125 88.3438 16.125 88.4062C14.875 88.4688 13.5 88.5938 12 88.7812C10.75 88.9062 9.3125 89.0938 7.6875 89.3438C6.0625 89.5938 4.34375 89.875 2.53125 90.1875C3.59375 89.125 4.46875 88.0625 5.15625 87C5.84375 85.9375 6.34375 85 6.65625 84.1875C7.03125 83.25 7.28125 82.3438 7.40625 81.4688C7.46875 80.7188 7.5 79.0938 7.5 76.5938C7.5 74.0312 7.46875 71.0625 7.40625 67.6875C7.34375 64.25 7.25 60.625 7.125 56.8125C7 53 6.875 49.4375 6.75 46.125C6.625 42.75 6.46875 39.875 6.28125 37.5C6.15625 35.125 6 33.6875 5.8125 33.1875C5.5625 32.5625 5.28125 31.8437 4.96875 31.0312C4.46875 29.7188 3.4375 27.8125 1.875 25.3125ZM53.0625 92.625C53.6875 91.6875 54.1875 90.8125 54.5625 90C54.9375 89.1875 55.25 88.5 55.5 87.9375C55.75 87.25 55.9375 86.625 56.0625 86.0625C56.125 85.6875 56.1562 84.5938 56.1562 82.7812C56.1562 80.9688 56.0938 78.6875 55.9688 75.9375C55.9062 73.1875 55.8125 70.0938 55.6875 66.6562C55.625 63.2188 55.5 59.7188 55.3125 56.1562C55.1875 52.5938 55.0312 49.125 54.8438 45.75C54.7188 42.375 54.5938 39.3438 54.4688 36.6562C54.3438 33.9062 54.2188 31.6562 54.0938 29.9062C53.9688 28.1563 53.875 27.1562 53.8125 26.9062C53.6875 26.5312 53.4688 26.1562 53.1562 25.7812C52.5312 25.0312 51.4688 24.3125 49.9688 23.625C53.1562 22.8125 55.5938 22.1563 57.2812 21.6562C58.2812 21.4063 59.1562 21.1562 59.9062 20.9062C60.5938 20.6563 61.2812 20.4062 61.9688 20.1562C62.5312 19.9063 63.1562 19.625 63.8438 19.3125C64.5312 18.9375 65.1562 18.5312 65.7188 18.0938C65.4062 19.9063 65.1562 21.6562 64.9688 23.3438C64.7812 25.0312 64.625 26.5937 64.5 28.0312C64.375 29.6563 64.3125 31.2188 64.3125 32.7188C64 35.7812 63.8125 39.125 63.75 42.75C63.75 46.3125 63.7812 49.9375 63.8438 53.625C63.9062 57.3125 64.0312 60.9062 64.2188 64.4062C64.4062 67.9062 64.5938 71.0938 64.7812 73.9688C65.0312 76.7812 65.25 79.1875 65.4375 81.1875C65.6875 83.125 65.875 84.375 66 84.9375C66.25 85.875 66.5 86.7812 66.75 87.6562C67 88.4062 67.2812 89.1875 67.5938 90C67.9062 90.875 68.2812 91.5625 68.7188 92.0625H59.625C58.8125 92.0625 58.0312 92.0938 57.2812 92.1562C56.5938 92.2188 55.875 92.2812 55.125 92.3438C54.375 92.4062 53.6875 92.5 53.0625 92.625ZM79.125 52.0312C79.4375 51.6562 79.625 50.9688 79.6875 49.9688C79.8125 48.9062 80.0625 47.7188 80.4375 46.4062C80.875 45.0938 81.5938 43.7188 82.5938 42.2812C83.5938 40.8438 85.2188 39.5 87.4688 38.25C89.6562 37 91.7812 36.25 93.8438 36C95.9062 35.75 97.875 35.8438 99.75 36.2812C101.625 36.7188 103.375 37.4062 105 38.3438C106.688 39.2812 108.219 40.3125 109.594 41.4375C110.531 42.1875 111.281 43.2812 111.844 44.7188C112.406 46.0938 112.844 47.6562 113.156 49.4062C113.469 51.1562 113.688 53 113.812 54.9375C114 56.8125 114.125 58.6562 114.188 60.4688C114.25 62.2188 114.281 63.8438 114.281 65.3438C114.344 66.7812 114.469 67.9688 114.656 68.9062C114.906 70.2812 115.344 71.4688 115.969 72.4688C116.594 73.4062 117.281 74.2188 118.031 74.9062C118.781 75.5312 119.531 76.0312 120.281 76.4062C121.031 76.7812 121.688 77.0625 122.25 77.25C122.625 77.4375 122.969 77.5625 123.281 77.625C123.906 77.875 124.344 77.875 124.594 77.625C124.219 78.5 123.875 79.25 123.562 79.875C123.25 80.5 123 81.0312 122.812 81.4688C122.562 81.9688 122.344 82.375 122.156 82.6875C121.969 83.0625 121.75 83.4062 121.5 83.7188C121.312 84.0312 121.062 84.375 120.75 84.75C120.438 85.125 120.125 85.5312 119.812 85.9688C119 85.6562 118.219 85.2812 117.469 84.8438C116.781 84.4062 116.156 84 115.594 83.625C114.906 83.1875 114.281 82.75 113.719 82.3125C113.156 81.875 112.625 81.375 112.125 80.8125C111.688 80.3125 111.219 79.7812 110.719 79.2188C110.281 78.6562 109.906 78.0312 109.594 77.3438C109.219 78.1562 108.312 79.3125 106.875 80.8125C105.5 82.3125 103.688 83.6875 101.438 84.9375C99.1875 86.125 96.5625 86.9688 93.5625 87.4688C90.625 87.9688 87.375 87.625 83.8125 86.4375C82.25 85.9375 80.7812 85.2188 79.4062 84.2812C78.0312 83.2812 76.8438 82.0938 75.8438 80.7188C74.9062 79.3438 74.2188 77.7812 73.7812 76.0312C73.4062 74.2188 73.4375 72.2188 73.875 70.0312C74.3125 67.8438 75.0938 66 76.2188 64.5C77.3438 63 78.6875 61.7812 80.25 60.8438C81.8125 59.9062 83.5625 59.1875 85.5 58.6875C87.4375 58.1875 89.4375 57.8438 91.5 57.6562C93.125 57.5938 94.75 57.6875 96.375 57.9375C97.75 58.1875 99.1875 58.6562 100.688 59.3438C102.188 59.9688 103.469 60.9375 104.531 62.25C104.469 58.9375 104.344 56.3125 104.156 54.375C104.031 52.375 103.906 50.8438 103.781 49.7812C103.531 48.5312 103.312 47.6562 103.125 47.1562C102.812 46.7188 102.469 46.2188 102.094 45.6562C101.781 45.0938 101.375 44.5938 100.875 44.1562C100.375 43.6562 99.75 43.25 99 42.9375C98.25 42.625 97.375 42.5 96.375 42.5625C95.3125 42.625 94.4688 42.9062 93.8438 43.4062C93.2188 43.9062 92.7188 44.5 92.3438 45.1875C92.0312 45.8125 91.8438 46.5 91.7812 47.25C91.7188 48 91.75 48.6562 91.875 49.2188C92 49.5938 92.1875 50 92.4375 50.4375C92.6875 50.8125 93.0312 51.2188 93.4688 51.6562C93.9062 52.0938 94.5 52.4688 95.25 52.7812C93.8125 52.9688 92.5312 53.125 91.4062 53.25C90.2812 53.3125 89.3125 53.4062 88.5 53.5312C87.5625 53.6562 86.75 53.75 86.0625 53.8125C85.375 53.875 84.5625 54 83.625 54.1875C82.8125 54.3125 81.8125 54.4688 80.625 54.6562C79.4375 54.8438 78.0625 55.0938 76.5 55.4062C76.875 54.9688 77.2188 54.5625 77.5312 54.1875C77.8438 53.75 78.125 53.375 78.375 53.0625C78.625 52.6875 78.875 52.3438 79.125 52.0312ZM93.1875 63.1875C92.0625 63.25 90.9375 63.5312 89.8125 64.0312C88.6875 64.4688 87.6875 65.125 86.8125 66C85.9375 66.8125 85.1875 67.7812 84.5625 68.9062C84 69.9688 83.7188 71.1562 83.7188 72.4688C83.7188 73.7812 84.0312 74.9375 84.6562 75.9375C85.3438 76.875 86.2188 77.6562 87.2812 78.2812C88.4062 78.9062 89.5938 79.2812 90.8438 79.4062C92.1562 79.5312 93.4375 79.4062 94.6875 79.0312C95.875 78.5938 97 77.9062 98.0625 76.9688C99.125 75.9688 100.031 74.9062 100.781 73.7812C101.531 72.5938 102.062 71.4375 102.375 70.3125C102.688 69.125 102.719 68.1562 102.469 67.4062C101.969 65.7812 100.844 64.6562 99.0938 64.0312C97.3438 63.3438 95.375 63.0625 93.1875 63.1875ZM165 36.4688C164.438 37.8438 163.938 39.0938 163.5 40.2188C163.125 41.3438 162.781 42.3438 162.469 43.2188C162.156 44.2188 161.875 45.0938 161.625 45.8438C161.375 46.7188 161.094 47.7188 160.781 48.8438C160.469 49.8438 160.062 51.0938 159.562 52.5938C159.125 54.0312 158.594 55.75 157.969 57.75C157.469 54.75 156.562 52.375 155.25 50.625C153.938 48.8125 152.594 47.4062 151.219 46.4062C149.594 45.2812 147.844 44.4688 145.969 43.9688C142.594 43.4062 140.156 43.4688 138.656 44.1562C137.156 44.8438 136.156 45.7188 135.656 46.7812C135.406 47.2188 135.125 47.7812 134.812 48.4688C134.562 49.0938 134.344 49.75 134.156 50.4375C134.031 51.125 134 51.8125 134.062 52.5C134.125 53.1875 134.406 53.75 134.906 54.1875C135.219 54.5 136.031 54.9375 137.344 55.5C138.656 56 140.219 56.5938 142.031 57.2812C143.906 57.9062 145.875 58.5938 147.938 59.3438C150.062 60.0938 152.062 60.8438 153.938 61.5938C155.812 62.3438 157.438 63.0938 158.812 63.8438C160.188 64.5938 161.094 65.2812 161.531 65.9062C161.906 66.5312 162.312 67.375 162.75 68.4375C163.25 69.4375 163.594 70.5625 163.781 71.8125C164.031 73 164.094 74.25 163.969 75.5625C163.906 76.8125 163.562 78.0625 162.938 79.3125C162.312 80.5625 161.312 81.7188 159.938 82.7812C158.625 83.8438 156.844 84.7188 154.594 85.4062C151.969 86.2188 149.438 86.4375 147 86.0625C144.562 85.6875 142.312 85.125 140.25 84.375C138.25 83.625 136.5 82.9062 135 82.2188C133.5 81.4688 132.438 81.1562 131.812 81.2812C131.125 81.4062 130.344 81.75 129.469 82.3125C128.594 82.875 127.75 83.4688 126.938 84.0938C126.188 84.6562 125.531 85.1875 124.969 85.6875C124.406 86.125 124.125 86.2812 124.125 86.1562C124.125 86.0312 124.219 85.6562 124.406 85.0312C124.656 84.4062 124.906 83.6562 125.156 82.7812C125.469 81.8438 125.75 80.8438 126 79.7812C126.312 78.6562 126.531 77.5938 126.656 76.5938C126.781 75.7812 126.938 74.7812 127.125 73.5938C127.25 72.5312 127.406 71.25 127.594 69.75C127.844 68.1875 128.125 66.3125 128.438 64.125C128.75 65.75 129.188 67.1562 129.75 68.3438C130.375 69.5312 130.969 70.5625 131.531 71.4375C132.219 72.4375 132.875 73.2812 133.5 73.9688C134.438 74.8438 135.531 75.6562 136.781 76.4062C138.094 77.1562 139.406 77.8125 140.719 78.375C142.031 78.875 143.281 79.1875 144.469 79.3125C145.656 79.4375 146.656 79.3125 147.469 78.9375C148.281 78.5625 148.969 77.875 149.531 76.875C150.156 75.875 150.594 74.7812 150.844 73.5938C151.094 72.4062 151.188 71.2812 151.125 70.2188C151.062 69.0938 150.781 68.1875 150.281 67.5C149.906 67.0625 149.031 66.5 147.656 65.8125C146.344 65.125 144.75 64.375 142.875 63.5625C141.062 62.75 139.125 61.9062 137.062 61.0312C135.062 60.1562 133.156 59.2812 131.344 58.4062C129.594 57.4688 128.125 56.5938 126.938 55.7812C125.812 54.9062 125.188 54.125 125.062 53.4375C124.938 52.4375 124.844 51.3438 124.781 50.1562C124.719 48.9062 124.781 47.6875 124.969 46.5C125.219 45.25 125.656 44.0625 126.281 42.9375C126.969 41.8125 127.969 40.875 129.281 40.125C130.156 39.625 131.312 39.25 132.75 39C134.188 38.75 135.781 38.625 137.531 38.625C139.281 38.5625 141.094 38.625 142.969 38.8125C144.844 38.9375 146.625 39.125 148.312 39.375C150.062 39.5625 151.625 39.8125 153 40.125C154.438 40.4375 155.531 40.7188 156.281 40.9688C157.156 41.2812 158.094 41.3125 159.094 41.0625C159.969 40.875 160.906 40.4688 161.906 39.8438C162.906 39.2188 163.938 38.0938 165 36.4688ZM167.906 18.9375C169.344 19.1875 170.656 19.375 171.844 19.5C173.031 19.5625 174.031 19.625 174.844 19.6875C175.781 19.75 176.594 19.7812 177.281 19.7812C178.219 19.7188 179.312 19.625 180.562 19.5C181.625 19.375 182.906 19.2188 184.406 19.0312C185.969 18.8438 187.75 18.5938 189.75 18.2812C188.812 18.7813 188.031 19.2812 187.406 19.7812C186.781 20.2187 186.281 20.6875 185.906 21.1875C185.469 21.75 185.125 22.2812 184.875 22.7812C184.562 23.5937 184.219 25.2812 183.844 27.8438C183.469 30.0313 183 33.2812 182.438 37.5938C181.938 41.9062 181.281 47.75 180.469 55.125C182.719 52.875 184.844 51.1875 186.844 50.0625C188.906 48.875 190.719 48.0312 192.281 47.5312C194.094 46.9688 195.781 46.6875 197.344 46.6875C199.281 46.875 201.25 47.5 203.25 48.5625C205.312 49.5625 207.219 50.75 208.969 52.125C210.781 53.5 212.344 54.9688 213.656 56.5312C215.031 58.0938 216 59.4688 216.562 60.6562C216.938 61.4688 217.125 62.5312 217.125 63.8438C217.125 65.0938 217 66.4688 216.75 67.9688C216.5 69.4688 216.156 71 215.719 72.5625C215.281 74.125 214.844 75.5938 214.406 76.9688C214.031 78.3438 213.688 79.5625 213.375 80.625C213.062 81.625 212.875 82.3438 212.812 82.7812C212.688 83.7188 212.75 84.625 213 85.5C213.188 86.25 213.562 87.0625 214.125 87.9375C214.688 88.75 215.531 89.4375 216.656 90C215.781 89.875 214.844 89.7812 213.844 89.7188C212.906 89.5938 212 89.5 211.125 89.4375C210.125 89.375 209.125 89.3438 208.125 89.3438H204.75C203.688 89.3438 202.469 89.375 201.094 89.4375C199.719 89.4375 198.219 89.4688 196.594 89.5312C197.469 89.2188 198.219 88.8125 198.844 88.3125C199.469 87.75 200 87.2188 200.438 86.7188C200.938 86.1562 201.375 85.5625 201.75 84.9375C202 84.4375 202.312 83.5 202.688 82.125C203.062 80.6875 203.406 79.0625 203.719 77.25C204.031 75.375 204.25 73.4062 204.375 71.3438C204.562 69.2812 204.594 67.3125 204.469 65.4375C204.406 63.5 204.125 61.7812 203.625 60.2812C203.188 58.7812 202.5 57.6875 201.562 57C198.75 54.875 196.188 53.8438 193.875 53.9062C191.625 53.9062 189.469 54.8125 187.406 56.625C186.656 57.3125 185.938 58 185.25 58.6875C184.625 59.3125 183.938 60.0625 183.188 60.9375C182.438 61.75 181.75 62.5938 181.125 63.4688C181.125 64.4062 181.156 65.4375 181.219 66.5625C181.281 67.6875 181.344 68.7812 181.406 69.8438C181.469 71.0312 181.562 72.2188 181.688 73.4062C181.812 75.2188 182 77 182.25 78.75C182.438 80.25 182.688 81.9062 183 83.7188C183.312 85.4688 183.719 87.0625 184.219 88.5C183.406 88.375 182.562 88.3438 181.688 88.4062C180.812 88.4062 179.969 88.4062 179.156 88.4062C178.219 88.4688 177.312 88.5 176.438 88.5C175.625 88.5625 174.781 88.6562 173.906 88.7812C173.156 88.9062 172.344 89.0312 171.469 89.1562C170.594 89.2188 169.75 89.3438 168.938 89.5312C169.688 88.0938 170.312 86.6875 170.812 85.3125C171.312 83.875 171.719 82.625 172.031 81.5625C172.406 80.3125 172.719 79.0938 172.969 77.9062C173.156 76.9688 173.281 75.1875 173.344 72.5625C173.469 69.875 173.562 66.8125 173.625 63.375C173.688 59.875 173.719 56.1875 173.719 52.3125C173.719 48.4375 173.688 44.75 173.625 41.25C173.562 37.75 173.438 34.6875 173.25 32.0625C173.125 29.4375 172.969 27.625 172.781 26.625C172.531 25.625 172.188 24.625 171.75 23.625C171.375 22.75 170.875 21.9062 170.25 21.0938C169.625 20.2187 168.844 19.5 167.906 18.9375ZM221.812 48.0938L239.062 48.2812C238.062 52.0938 237.312 55.3438 236.812 58.0312C236.375 60.7188 236.094 62.9688 235.969 64.7812C235.719 66.8438 235.656 68.5938 235.781 70.0312C235.969 71.3438 236.281 72.75 236.719 74.25C237.094 75.5 237.656 76.9375 238.406 78.5625C239.156 80.1875 240.156 81.8125 241.406 83.4375C240.656 83.1875 239.844 83 238.969 82.875C238.094 82.75 237.281 82.6562 236.531 82.5938C235.656 82.5312 234.781 82.5312 233.906 82.5938C233.031 82.6562 232.062 82.75 231 82.875C230.125 83 229.062 83.1562 227.812 83.3438C226.562 83.5312 225.25 83.7812 223.875 84.0938C224.812 81.2812 225.531 78.8438 226.031 76.7812C226.594 74.7188 227 73 227.25 71.625C227.5 70 227.656 68.6875 227.719 67.6875C227.719 66.4375 227.719 65.0312 227.719 63.4688C227.719 61.8438 227.719 60.2812 227.719 58.7812C227.719 57.2812 227.688 55.9688 227.625 54.8438C227.562 53.6562 227.438 52.9062 227.25 52.5938L226.312 51.6562C225.938 51.3438 225.375 50.9062 224.625 50.3438C223.938 49.7188 223 48.9688 221.812 48.0938ZM228.469 33.6562C229.781 32.9688 231.094 32.7812 232.406 33.0938C233.781 33.4062 234.844 34 235.594 34.875C236.344 35.75 236.594 36.7812 236.344 37.9688C236.156 39.1562 235.156 40.3125 233.344 41.4375C231.531 42.5 229.938 42.875 228.562 42.5625C227.188 42.25 226.219 41.5938 225.656 40.5938C225.094 39.5938 225 38.4375 225.375 37.125C225.75 35.75 226.781 34.5938 228.469 33.6562ZM269.906 48C271.531 48 273.219 48.3125 274.969 48.9375C276.719 49.5 278.406 50.25 280.031 51.1875C281.656 52.0625 283.125 53.0312 284.438 54.0938C285.812 55.0938 286.938 56.0625 287.812 57C289.375 58.6875 290.438 60.9688 291 63.8438C291.625 66.6562 291.75 69.5625 291.375 72.5625C291 75.5 290.125 78.2812 288.75 80.9062C287.375 83.5312 285.469 85.4688 283.031 86.7188C281.281 87.5938 279.562 88.2812 277.875 88.7812C276.188 89.2812 274.562 89.6562 273 89.9062C271.438 90.1562 269.969 90.2812 268.594 90.2812C267.219 90.2812 266.031 90.25 265.031 90.1875C263.156 90.0625 261.188 89.4062 259.125 88.2188C257.125 87.0312 255.219 85.5625 253.406 83.8125C251.656 82.0625 250.156 80.1562 248.906 78.0938C247.656 75.9688 246.906 73.9688 246.656 72.0938C246.281 69.5312 246.219 66.8438 246.469 64.0312C246.719 61.2188 247.625 58.625 249.188 56.25C250.812 53.875 253.25 51.9062 256.5 50.3438C259.812 48.7812 264.281 48 269.906 48ZM266.812 84.375C267.5 84.5 268.438 84.3438 269.625 83.9062C270.812 83.4062 271.969 82.625 273.094 81.5625C274.281 80.5 275.312 79.1562 276.188 77.5312C277.125 75.8438 277.688 73.8125 277.875 71.4375C278.062 69.125 278.062 67 277.875 65.0625C277.75 63.125 277.469 61.4375 277.031 60C276.594 58.5 276.094 57.2812 275.531 56.3438C274.969 55.4062 274.375 54.75 273.75 54.375C272.688 53.8125 271.406 53.375 269.906 53.0625C268.406 52.6875 267.125 52.75 266.062 53.25C265.562 53.5 264.938 54.0312 264.188 54.8438C263.438 55.6562 262.688 56.6875 261.938 57.9375C261.188 59.125 260.5 60.5 259.875 62.0625C259.312 63.625 258.906 65.25 258.656 66.9375C258.406 68.625 258.344 70.4375 258.469 72.375C258.656 74.3125 259.062 76.1562 259.688 77.9062C260.312 79.5938 261.188 81.0625 262.312 82.3125C263.5 83.5 265 84.1875 266.812 84.375Z" fill="black"/>
</svg>
